# xmcd
#
# Track frame offsets:
#	150
#	17395
#	33865
#	47977
#	66177
#	81787
#	95865
#	113142
#	132492
#	152840
#
# Disc length: 2337 seconds
# Revision: 1
# Processed by: cddbd v1.5.2PL0 Copyright (c) Steve Scherf et al.
# Submitted via: dBpowerAMP V12.0
#
DISCID=80091f0a
DTITLE=李樂詩 - 真情細說 [dBS+1]
DYEAR=1996
DGENRE=Chinese Pop
TTITLE0=真情細說(無悔愛你一生)(Tvb無線電視劇真情主題曲)
TTITLE1=自選影像
TTITLE2=罪惡快感
TTITLE3=原來世界很美
TTITLE4=我們曾經相遇過
TTITLE5=示威
TTITLE6=反口
TTITLE7=遠走高飛
TTITLE8=別躲避
TTITLE9=老地方
EXTD=
EXTT0=
EXTT1=
EXTT2=
EXTT3=
EXTT4=
EXTT5=
EXTT6=
EXTT7=
EXTT8=
EXTT9=
PLAYORDER=
